<svg version="1.1" xmlns="http://www.w3.org/2000/svg" xmlns:xlink="http://www.w3.org/1999/xlink" width="1200" height="800"><defs/><g transform="scale(2,2)"><g id="background-edc71123"><rect fill="white" stroke="none" x="0" y="0" width="600" height="400" class="dcg-svg-background"/></g><g id="background-images-edc71123"/><g id="graphpaper-edc71123"><g id="grid-edc71123"><g><path fill="none" stroke="rgb(0,0,0)" class="dcg-svg-minor-gridline" paint-order="fill stroke markers" d=" M 9.5 0 L 9.5 400" stroke-opacity="0.2" stroke-miterlimit="10" stroke-dasharray=""/><path fill="none" stroke="rgb(0,0,0)" class="dcg-svg-minor-gridline" paint-order="fill stroke markers" d=" M 35.5 0 L 35.5 400" stroke-opacity="0.2" stroke-miterlimit="10" stroke-dasharray=""/><path fill="none" stroke="rgb(0,0,0)" class="dcg-svg-minor-gridline" paint-order="fill stroke markers" d=" M 60.5 0 L 60.5 400" stroke-opacity="0.2" stroke-miterlimit="10" stroke-dasharray=""/><path fill="none" stroke="rgb(0,0,0)" class="dcg-svg-minor-gridline" paint-order="fill stroke markers" d=" M 86.5 0 L 86.5 400" stroke-opacity="0.2" stroke-miterlimit="10" stroke-dasharray=""/><path fill="none" stroke="rgb(0,0,0)" class="dcg-svg-minor-gridline" paint-order="fill stroke markers" d=" M 111.5 0 L 111.5 400" stroke-opacity="0.2" stroke-miterlimit="10" stroke-dasharray=""/><path fill="none" stroke="rgb(0,0,0)" class="dcg-svg-minor-gridline" paint-order="fill stroke markers" d=" M 137.5 0 L 137.5 400" stroke-opacity="0.2" stroke-miterlimit="10" stroke-dasharray=""/><path fill="none" stroke="rgb(0,0,0)" class="dcg-svg-minor-gridline" paint-order="fill stroke markers" d=" M 162.5 0 L 162.5 400" stroke-opacity="0.2" stroke-miterlimit="10" stroke-dasharray=""/><path fill="none" stroke="rgb(0,0,0)" class="dcg-svg-minor-gridline" paint-order="fill stroke markers" d=" M 187.5 0 L 187.5 400" stroke-opacity="0.2" stroke-miterlimit="10" stroke-dasharray=""/><path fill="none" stroke="rgb(0,0,0)" class="dcg-svg-minor-gridline" paint-order="fill stroke markers" d=" M 213.5 0 L 213.5 400" stroke-opacity="0.2" stroke-miterlimit="10" stroke-dasharray=""/><path fill="none" stroke="rgb(0,0,0)" class="dcg-svg-minor-gridline" paint-order="fill stroke markers" d=" M 238.5 0 L 238.5 400" stroke-opacity="0.2" stroke-miterlimit="10" stroke-dasharray=""/><path fill="none" stroke="rgb(0,0,0)" class="dcg-svg-minor-gridline" paint-order="fill stroke markers" d=" M 264.5 0 L 264.5 400" stroke-opacity="0.2" stroke-miterlimit="10" stroke-dasharray=""/><path fill="none" stroke="rgb(0,0,0)" class="dcg-svg-minor-gridline" paint-order="fill stroke markers" d=" M 315.5 0 L 315.5 400" stroke-opacity="0.2" stroke-miterlimit="10" stroke-dasharray=""/><path fill="none" stroke="rgb(0,0,0)" class="dcg-svg-minor-gridline" paint-order="fill stroke markers" d=" M 340.5 0 L 340.5 400" stroke-opacity="0.2" stroke-miterlimit="10" stroke-dasharray=""/><path fill="none" stroke="rgb(0,0,0)" class="dcg-svg-minor-gridline" paint-order="fill stroke markers" d=" M 366.5 0 L 366.5 400" stroke-opacity="0.2" stroke-miterlimit="10" stroke-dasharray=""/><path fill="none" stroke="rgb(0,0,0)" class="dcg-svg-minor-gridline" paint-order="fill stroke markers" d=" M 391.5 0 L 391.5 400" stroke-opacity="0.2" stroke-miterlimit="10" stroke-dasharray=""/><path fill="none" stroke="rgb(0,0,0)" class="dcg-svg-minor-gridline" paint-order="fill stroke markers" d=" M 417.5 0 L 417.5 400" stroke-opacity="0.2" stroke-miterlimit="10" stroke-dasharray=""/><path fill="none" stroke="rgb(0,0,0)" class="dcg-svg-minor-gridline" paint-order="fill stroke markers" d=" M 442.5 0 L 442.5 400" stroke-opacity="0.2" stroke-miterlimit="10" stroke-dasharray=""/><path fill="none" stroke="rgb(0,0,0)" class="dcg-svg-minor-gridline" paint-order="fill stroke markers" d=" M 468.5 0 L 468.5 400" stroke-opacity="0.2" stroke-miterlimit="10" stroke-dasharray=""/><path fill="none" stroke="rgb(0,0,0)" class="dcg-svg-minor-gridline" paint-order="fill stroke markers" d=" M 493.5 0 L 493.5 400" stroke-opacity="0.2" stroke-miterlimit="10" stroke-dasharray=""/><path fill="none" stroke="rgb(0,0,0)" class="dcg-svg-minor-gridline" paint-order="fill stroke markers" d=" M 519.5 0 L 519.5 400" stroke-opacity="0.2" stroke-miterlimit="10" stroke-dasharray=""/><path fill="none" stroke="rgb(0,0,0)" class="dcg-svg-minor-gridline" paint-order="fill stroke markers" d=" M 544.5 0 L 544.5 400" stroke-opacity="0.2" stroke-miterlimit="10" stroke-dasharray=""/><path fill="none" stroke="rgb(0,0,0)" class="dcg-svg-minor-gridline" paint-order="fill stroke markers" d=" M 570.5 0 L 570.5 400" stroke-opacity="0.2" stroke-miterlimit="10" stroke-dasharray=""/><path fill="none" stroke="rgb(0,0,0)" class="dcg-svg-minor-gridline" paint-order="fill stroke markers" d=" M 595.5 0 L 595.5 400" stroke-opacity="0.2" stroke-miterlimit="10" stroke-dasharray=""/><path fill="none" stroke="rgb(0,0,0)" class="dcg-svg-minor-gridline" paint-order="fill stroke markers" d=" M 0 386.5 L 600 386.5" stroke-opacity="0.2" stroke-miterlimit="10" stroke-dasharray=""/><path fill="none" stroke="rgb(0,0,0)" class="dcg-svg-minor-gridline" paint-order="fill stroke markers" d=" M 0 360.5 L 600 360.5" stroke-opacity="0.2" stroke-miterlimit="10" stroke-dasharray=""/><path fill="none" stroke="rgb(0,0,0)" class="dcg-svg-minor-gridline" paint-order="fill stroke markers" d=" M 0 335.5 L 600 335.5" stroke-opacity="0.2" stroke-miterlimit="10" stroke-dasharray=""/><path fill="none" stroke="rgb(0,0,0)" class="dcg-svg-minor-gridline" paint-order="fill stroke markers" d=" M 0 309.5 L 600 309.5" stroke-opacity="0.2" stroke-miterlimit="10" stroke-dasharray=""/><path fill="none" stroke="rgb(0,0,0)" class="dcg-svg-minor-gridline" paint-order="fill stroke markers" d=" M 0 284.5 L 600 284.5" stroke-opacity="0.2" stroke-miterlimit="10" stroke-dasharray=""/><path fill="none" stroke="rgb(0,0,0)" class="dcg-svg-minor-gridline" paint-order="fill stroke markers" d=" M 0 258.5 L 600 258.5" stroke-opacity="0.2" stroke-miterlimit="10" stroke-dasharray=""/><path fill="none" stroke="rgb(0,0,0)" class="dcg-svg-minor-gridline" paint-order="fill stroke markers" d=" M 0 233.5 L 600 233.5" stroke-opacity="0.2" stroke-miterlimit="10" stroke-dasharray=""/><path fill="none" stroke="rgb(0,0,0)" class="dcg-svg-minor-gridline" paint-order="fill stroke markers" d=" M 0 182.5 L 600 182.5" stroke-opacity="0.2" stroke-miterlimit="10" stroke-dasharray=""/><path fill="none" stroke="rgb(0,0,0)" class="dcg-svg-minor-gridline" paint-order="fill stroke markers" d=" M 0 156.5 L 600 156.5" stroke-opacity="0.2" stroke-miterlimit="10" stroke-dasharray=""/><path fill="none" stroke="rgb(0,0,0)" class="dcg-svg-minor-gridline" paint-order="fill stroke markers" d=" M 0 131.5 L 600 131.5" stroke-opacity="0.2" stroke-miterlimit="10" stroke-dasharray=""/><path fill="none" stroke="rgb(0,0,0)" class="dcg-svg-minor-gridline" paint-order="fill stroke markers" d=" M 0 105.5 L 600 105.5" stroke-opacity="0.2" stroke-miterlimit="10" stroke-dasharray=""/><path fill="none" stroke="rgb(0,0,0)" class="dcg-svg-minor-gridline" paint-order="fill stroke markers" d=" M 0 80.5 L 600 80.5" stroke-opacity="0.2" stroke-miterlimit="10" stroke-dasharray=""/><path fill="none" stroke="rgb(0,0,0)" class="dcg-svg-minor-gridline" paint-order="fill stroke markers" d=" M 0 54.5 L 600 54.5" stroke-opacity="0.2" stroke-miterlimit="10" stroke-dasharray=""/><path fill="none" stroke="rgb(0,0,0)" class="dcg-svg-minor-gridline" paint-order="fill stroke markers" d=" M 0 29.5 L 600 29.5" stroke-opacity="0.2" stroke-miterlimit="10" stroke-dasharray=""/><path fill="none" stroke="rgb(0,0,0)" class="dcg-svg-minor-gridline" paint-order="fill stroke markers" d=" M 0 3.5 L 600 3.5" stroke-opacity="0.2" stroke-miterlimit="10" stroke-dasharray=""/><path fill="none" stroke="rgb(0,0,0)" class="dcg-svg-major-gridline" paint-order="fill stroke markers" d=" M 35.5 0 L 35.5 400" stroke-opacity="0.2500000000000001" stroke-miterlimit="10" stroke-dasharray=""/><path fill="none" stroke="rgb(0,0,0)" class="dcg-svg-major-gridline" paint-order="fill stroke markers" d=" M 162.5 0 L 162.5 400" stroke-opacity="0.2500000000000001" stroke-miterlimit="10" stroke-dasharray=""/><path fill="none" stroke="rgb(0,0,0)" class="dcg-svg-major-gridline" paint-order="fill stroke markers" d=" M 417.5 0 L 417.5 400" stroke-opacity="0.2500000000000001" stroke-miterlimit="10" stroke-dasharray=""/><path fill="none" stroke="rgb(0,0,0)" class="dcg-svg-major-gridline" paint-order="fill stroke markers" d=" M 544.5 0 L 544.5 400" stroke-opacity="0.2500000000000001" stroke-miterlimit="10" stroke-dasharray=""/><path fill="none" stroke="rgb(0,0,0)" class="dcg-svg-major-gridline" paint-order="fill stroke markers" d=" M 0 335.5 L 600 335.5" stroke-opacity="0.2500000000000001" stroke-miterlimit="10" stroke-dasharray=""/><path fill="none" stroke="rgb(0,0,0)" class="dcg-svg-major-gridline" paint-order="fill stroke markers" d=" M 0 80.5 L 600 80.5" stroke-opacity="0.2500000000000001" stroke-miterlimit="10" stroke-dasharray=""/></g></g><g id="axis-edc71123"><g id="yaxis-edc71123"><title>Y axis</title><g><path fill="none" stroke="rgb(0,0,0)" class="dcg-svg-axis-line" paint-order="fill stroke markers" d=" M 290 0 L 290 400" stroke-opacity="0.9" stroke-miterlimit="10" stroke-width="1.5" stroke-dasharray=""/></g></g><g id="xaxis-edc71123"><title>X axis</title><g><path fill="none" stroke="rgb(0,0,0)" class="dcg-svg-axis-line" paint-order="fill stroke markers" d=" M 0 208 L 600 208" stroke-opacity="0.9" stroke-miterlimit="10" stroke-width="1.5" stroke-dasharray=""/></g></g><g><g class="dcg-svg-axis-value"><text fill="none" stroke="#ffffff" font-family="Arial" font-size="14px" font-style="normal" font-weight="normal" text-decoration="normal" x="281.04491944281807" y="223.57790259169602" text-anchor="middle" stroke-miterlimit="2" stroke-width="3" stroke-dasharray="">0</text><text fill="#000000" stroke="none" font-family="Arial" font-size="14px" font-style="normal" font-weight="normal" text-decoration="normal" x="281.04491944281807" y="223.57790259169602" text-anchor="middle">0</text></g><g class="dcg-svg-axis-value"><text fill="none" stroke="#ffffff" font-family="Arial" font-size="14px" font-style="normal" font-weight="normal" text-decoration="normal" x="32.72106690375696" y="223.57790259169602" text-anchor="middle" stroke-miterlimit="2" stroke-width="3" stroke-dasharray="">-10</text><text fill="#000000" stroke="none" font-family="Arial" font-size="14px" font-style="normal" font-weight="normal" text-decoration="normal" x="32.72106690375696" y="223.57790259169602" text-anchor="middle">-10</text></g><g class="dcg-svg-axis-value"><text fill="none" stroke="#ffffff" font-family="Arial" font-size="14px" font-style="normal" font-weight="normal" text-decoration="normal" x="160.1639990326625" y="223.57790259169602" text-anchor="middle" stroke-miterlimit="2" stroke-width="3" stroke-dasharray="">-5</text><text fill="#000000" stroke="none" font-family="Arial" font-size="14px" font-style="normal" font-weight="normal" text-decoration="normal" x="160.1639990326625" y="223.57790259169602" text-anchor="middle">-5</text></g><g class="dcg-svg-axis-value"><text fill="none" stroke="#ffffff" font-family="Arial" font-size="14px" font-style="normal" font-weight="normal" text-decoration="normal" x="417.38091797797364" y="223.57790259169602" text-anchor="middle" stroke-miterlimit="2" stroke-width="3" stroke-dasharray="">5</text><text fill="#000000" stroke="none" font-family="Arial" font-size="14px" font-style="normal" font-weight="normal" text-decoration="normal" x="417.38091797797364" y="223.57790259169602" text-anchor="middle">5</text></g><g class="dcg-svg-axis-value"><text fill="none" stroke="#ffffff" font-family="Arial" font-size="14px" font-style="normal" font-weight="normal" text-decoration="normal" x="544.8238501068791" y="223.57790259169602" text-anchor="middle" stroke-miterlimit="2" stroke-width="3" stroke-dasharray="">10</text><text fill="#000000" stroke="none" font-family="Arial" font-size="14px" font-style="normal" font-weight="normal" text-decoration="normal" x="544.8238501068791" y="223.57790259169602" text-anchor="middle">10</text></g><g class="dcg-svg-axis-value"><text fill="none" stroke="#ffffff" font-family="Arial" font-size="14px" font-style="normal" font-weight="normal" text-decoration="normal" x="278.71386475531807" y="339.02083472060156" text-anchor="middle" stroke-miterlimit="2" stroke-width="3" stroke-dasharray="">-5</text><text fill="#000000" stroke="none" font-family="Arial" font-size="14px" font-style="normal" font-weight="normal" text-decoration="normal" x="278.71386475531807" y="339.02083472060156" text-anchor="middle">-5</text></g><g class="dcg-svg-axis-value"><text fill="none" stroke="#ffffff" font-family="Arial" font-size="14px" font-style="normal" font-weight="normal" text-decoration="normal" x="281.04491944281807" y="84.13497046279046" text-anchor="middle" stroke-miterlimit="2" stroke-width="3" stroke-dasharray="">5</text><text fill="#000000" stroke="none" font-family="Arial" font-size="14px" font-style="normal" font-weight="normal" text-decoration="normal" x="281.04491944281807" y="84.13497046279046" text-anchor="middle">5</text></g></g></g></g><g id="expressions-edc71123"><g id="sketch-edc71123"><title>Expression 1</title><path fill="#000000" stroke="none" paint-order="stroke fill markers" d="" fill-opacity="0.4"/><g><path fill="none" stroke="#000000" class="dcg-svg-curve" paint-order="fill stroke markers" d=" M 289.93798584906807 207.76990259169602 L 289.93798584906807 207.76990259169602 L 290.185546875 215.70958266016507 L 290.771484375 222.32161288110996 L 291.650390625 228.59141649333088 L 292.822265625 234.729929921502 L 294.287109375 240.7792229910517 L 296.044921875 246.7478065798788 L 298.095703125 252.63345647558654 L 300.439453125 258.4294993888831 L 303.076171875 264.12703140383087 L 306.005859375 269.7158247399458 L 309.228515625 275.1847289646337 L 312.744140625 280.5218494714672 L 316.552734375 285.7146159527564 L 320.654296875 290.74979003205476 L 325.1953125 295.76714739102044 L 330.029296875 300.56750622614 L 335.302734375 305.2628393925196 L 340.72265625 309.57958709399827 L 346.2890625 313.5415861100732 L 351.85546875 317.07734265450733 L 357.421875 320.2270682805855 L 363.134765625 323.091435292709 L 368.84765625 325.60972377136704 L 374.560546875 327.80371769484293 L 380.2734375 329.6909255622635 L 385.986328125 331.2854104341382 L 391.69921875 332.598390022958 L 397.412109375 333.63867406655646 L 403.125 334.4129827509298 L 408.837890625 334.92617508054803 L 414.55078125 335.1814062941239 L 420.263671875 335.1802266615374 L 425.9765625 334.92262904639614 L 431.689453125 334.40704868856267 L 437.40234375 333.6303151910041 L 443.115234375 332.58755322328966 L 448.828125 331.2720245172996 L 454.541015625 329.67489876689916 L 460.25390625 327.7849342595647 L 465.8203125 325.64834000903 L 471.38671875 323.204188800712 L 476.953125 320.43246558463375 L 482.51953125 317.3083068643995 L 487.939453125 313.89809897474345 L 493.359375 310.08791184796 L 498.63281249999994 305.95254151627546 L 503.90624999999994 301.33842223420686 L 508.88671875 296.4738448641963 L 513.57421875 291.36744942289977 L 517.822265625 286.2124715989769 L 521.77734375 280.86632682461334 L 525.439453125 275.33508542643494 L 528.662109375 269.884292155397 L 531.591796875 264.3170164984341 L 534.228515625 258.64563230372545 L 536.572265625 252.88224675267406 L 538.623046875 247.0388105231585 L 540.380859375 241.12729106772798 L 541.845703125 235.16001409050878 L 543.017578125 229.15051476051448 L 543.896484375 223.11631614185316 L 544.482421875 217.09238384547297 L 544.775390625 211.28405805195655 L 544.8238501068791 207.76990259169602" stroke-linecap="round" stroke-linejoin="round" stroke-miterlimit="10" stroke-width="2.5" stroke-opacity="0.9" stroke-dasharray=""/></g><path fill="#000000" stroke="none" paint-order="stroke fill markers" d="" fill-opacity="0.4"/><g><path fill="none" stroke="#000000" class="dcg-svg-curve" paint-order="fill stroke markers" d=" M 289.93798584906807 207.76990259169602 L 289.93798584906807 207.76990259169602 L 290.185546875 199.83022252322698 L 290.771484375 193.2181923022821 L 291.650390625 186.94838869006117 L 292.822265625 180.80987526189006 L 294.287109375 174.76058219234034 L 296.044921875 168.79199860351324 L 298.095703125 162.9063487078055 L 300.439453125 157.110305794509 L 303.076171875 151.41277377956115 L 306.005859375 145.82398044344626 L 309.228515625 140.35507621875837 L 312.744140625 135.01795571192486 L 316.552734375 129.82518923063563 L 320.654296875 124.7900151513373 L 325.1953125 119.77265779237163 L 330.029296875 114.97229895725208 L 335.302734375 110.27696579087247 L 340.72265625 105.96021808939378 L 346.2890625 101.99821907331885 L 351.85546875 98.46246252888473 L 357.421875 95.31273690280655 L 363.134765625 92.44836989068304 L 368.84765625 89.93008141202502 L 374.560546875 87.73608748854915 L 380.2734375 85.84887962112857 L 385.986328125 84.25439474925383 L 391.69921875 82.94141516043406 L 397.412109375 81.9011311168356 L 403.125 81.1268224324622 L 408.837890625 80.61363010284403 L 414.55078125 80.3583988892681 L 420.263671875 80.35957852185462 L 425.9765625 80.61717613699591 L 431.689453125 81.1327564948294 L 437.40234375 81.90948999238793 L 443.115234375 82.95225196010237 L 448.828125 84.26778066609245 L 454.541015625 85.86490641649287 L 460.25390625 87.75487092382734 L 465.8203125 89.89146517436208 L 471.38671875 92.33561638268002 L 476.953125 95.10733959875827 L 482.51953125 98.23149831899254 L 487.939453125 101.6417062086486 L 493.359375 105.45189333543203 L 498.63281249999994 109.58726366711659 L 503.90624999999994 114.20138294918517 L 508.88671875 119.0659603191958 L 513.57421875 124.17235576049228 L 517.822265625 129.32733358441513 L 521.77734375 134.6734783587787 L 525.439453125 140.2047197569571 L 528.662109375 145.655513027995 L 531.591796875 151.22278868495792 L 534.228515625 156.8941728796666 L 536.572265625 162.65755843071798 L 538.623046875 168.50099466023354 L 540.380859375 174.41251411566407 L 541.845703125 180.37979109288327 L 543.017578125 186.38929042287756 L 543.896484375 192.4234890415389 L 544.482421875 198.44742133791908 L 544.775390625 204.2557471314355 L 544.8238501068791 207.76990259169602" stroke-linecap="round" stroke-linejoin="round" stroke-miterlimit="10" stroke-width="2.5" stroke-opacity="0.9" stroke-dasharray=""/></g><path fill="#000000" stroke="none" paint-order="stroke fill markers" d="" fill-opacity="0.4"/><g><path fill="none" stroke="#000000" class="dcg-svg-curve" paint-order="fill stroke markers" d=" M 289.93798584906807 207.76990259169602 L 289.93798584906807 207.76990259169602 L 290.185546875 214.87050526889206 L 290.771484375 220.78000919844914 L 291.650390625 226.37747865365137 L 292.822265625 231.84916015778262 L 294.287109375 237.23020149535776 L 296.044921875 242.52565989785512 L 298.095703125 247.7308973671441 L 300.439453125 252.83718157693494 L 303.076171875 257.8336458391566 L 306.005859375 262.708072425688 L 309.228515625 267.4472194223599 L 312.744140625 272.0369429833687 L 316.69921875 276.6225306814717 L 320.947265625 280.9920729251306 L 325.48828125 285.1339169085352 L 330.322265625 289.0337665748551 L 335.302734375 292.5773674699442 L 340.283203125 295.6970683070639 L 345.263671875 298.4366368687216 L 350.39062499999994 300.89507083856637 L 355.517578125 303.0146710614821 L 360.64453125 304.8176412774918 L 365.771484375 306.32136098018447 L 370.8984375 307.539361948142 L 376.025390625 308.4820110661252 L 381.15234375 309.1569888983898 L 386.279296875 309.5696199265926 L 391.40625 309.72308955746394 L 396.533203125 309.6185693419138 L 401.66015625 309.25526216846015 L 406.787109375 308.63037156423957 L 411.9140625 307.73899230249526 L 417.041015625 306.5739121113422 L 422.16796875 305.12530511266016 L 427.14843749999994 303.43439757886034 L 432.12890625 301.4486443869399 L 437.109375 299.14882570633614 L 442.08984375 296.51052675505866 L 446.923828125 293.59660585303124 L 451.7578125 290.29755128375507 L 456.4453125 286.68505486617505 L 461.1328125 282.6060195798758 L 465.52734375 278.2863800021634 L 469.62890625 273.73742158403354 L 473.291015625 269.16161896261605 L 476.66015625 264.418861132467 L 479.736328125 259.52046658735503 L 482.51953125 254.47535497882038 L 485.009765625 249.28895941441982 L 487.20703125 243.96101516466055 L 488.96484375 238.9406578497697 L 490.576171875 233.38607457142103 L 491.748046875 228.3496189435471 L 492.626953125 223.4932808653204 L 493.359375 217.72619214719623 L 493.65234375 214.06184388626392 L 493.846677255317 207.76990259169602" stroke-linecap="round" stroke-linejoin="round" stroke-miterlimit="10" stroke-width="2.5" stroke-opacity="0.9" stroke-dasharray=""/></g><path fill="#000000" stroke="none" paint-order="stroke fill markers" d="" fill-opacity="0.4"/><g><path fill="none" stroke="#000000" class="dcg-svg-curve" paint-order="fill stroke markers" d=" M 289.93798584906807 207.76990259169602 L 289.93798584906807 207.76990259169602 L 290.185546875 200.6692999145 L 290.771484375 194.7597959849429 L 291.650390625 189.16232652974068 L 292.822265625 183.69064502560943 L 294.287109375 178.3096036880343 L 296.044921875 173.01414528553693 L 298.095703125 167.80890781624794 L 300.439453125 162.7026236064571 L 303.076171875 157.70615934423546 L 306.005859375 152.83173275770403 L 309.228515625 148.09258576103213 L 312.744140625 143.50286220002334 L 316.69921875 138.91727450192036 L 320.947265625 134.5477322582614 L 325.48828125 130.40588827485686 L 330.322265625 126.50603860853695 L 335.302734375 122.96243771344787 L 340.283203125 119.84273687632817 L 345.263671875 117.10316831467041 L 350.39062499999994 114.64473434482566 L 355.517578125 112.52513412190993 L 360.64453125 110.7221639059002 L 365.771484375 109.2184442032076 L 370.8984375 108.00044323525003 L 376.025390625 107.05779411726682 L 381.15234375 106.38281628500228 L 386.279296875 105.97018525679943 L 391.40625 105.8167156259281 L 396.533203125 105.92123584147822 L 401.66015625 106.28454301493188 L 406.787109375 106.9094336191525 L 411.9140625 107.8008128808968 L 417.041015625 108.96589307204985 L 422.16796875 110.41450007073189 L 427.14843749999994 112.10540760453169 L 432.12890625 114.09116079645213 L 437.109375 116.39097947705592 L 442.08984375 119.02927842833337 L 446.923828125 121.9431993303608 L 451.7578125 125.24225389963699 L 456.4453125 128.854750317217 L 461.1328125 132.93378560351627 L 465.52734375 137.25342518122864 L 469.62890625 141.8023835993585 L 473.291015625 146.378186220776 L 476.66015625 151.12094405092503 L 479.736328125 156.01933859603702 L 482.51953125 161.06445020457167 L 485.009765625 166.25084576897223 L 487.20703125 171.5787900187315 L 488.96484375 176.59914733362234 L 490.576171875 182.153730611971 L 491.748046875 187.19018623984493 L 492.626953125 192.04652431807165 L 493.359375 197.81361303619582 L 493.65234375 201.47796129712813 L 493.846677255317 207.76990259169602" stroke-linecap="round" stroke-linejoin="round" stroke-miterlimit="10" stroke-width="2.5" stroke-opacity="0.9" stroke-dasharray=""/></g><path fill="#000000" stroke="none" paint-order="stroke fill markers" d="" fill-opacity="0.4"/><g><path fill="none" stroke="#000000" class="dcg-svg-curve" paint-order="fill stroke markers" d=" M 289.93798584906807 207.76990259169602 L 289.93798584906807 207.76990259169602 L 290.185546875 213.9179589649869 L 290.771484375 219.029275375787 L 291.650390625 223.86177422450902 L 292.822265625 228.57322483224192 L 294.287109375 233.19042952877714 L 296.044921875 237.71398936249716 L 298.095703125 242.1359285445762 L 300.439453125 246.44450049022822 L 303.076171875 250.6258334291862 L 306.005859375 254.66454768705924 L 309.228515625 258.54396558966334 L 312.890625 262.39002998258445 L 316.845703125 266.00230606988816 L 321.09375 269.36549239734035 L 325.341796875 272.27516398686464 L 329.73632812499994 274.87066914696885 L 334.130859375 277.09142296695154 L 338.525390625 278.9724986971348 L 342.919921875 280.54024261671645 L 347.314453125 281.81455987867025 L 351.70898437499994 282.81040064654235 L 356.103515625 283.5387458854858 L 360.64453125 284.0184684627101 L 365.185546875 284.22595751791414 L 369.580078125 284.16966208439794 L 373.974609375 283.8599437034609 L 378.369140625 283.29368462373526 L 382.763671875 282.46505061779897 L 387.158203125 281.3651797162877 L 391.552734375 279.9816792048981 L 395.947265625 278.29785973218105 L 400.1953125 276.3639425390329 L 404.443359375 274.1023990747864 L 408.69140625 271.47834833130855 L 412.79296875 268.5568442277194 L 416.89453125 265.1954444566419 L 420.849609375 261.4603133564209 L 424.51171875 257.4737831567078 L 427.734375 253.43790212276264 L 430.6640625 249.2141296071235 L 433.30078125 244.80770624876922 L 435.498046875 240.52642572428155 L 437.40234375 236.16376346596223 L 439.013671875 231.74511644736833 L 440.33203125 227.30502103744493 L 441.357421875 222.90128335250924 L 442.08984375 218.66149646041163 L 442.529296875 214.97495032461077 L 442.822265625 210.45729289967454 L 442.8695044037547 207.76990259169602" stroke-linecap="round" stroke-linejoin="round" stroke-miterlimit="10" stroke-width="2.5" stroke-opacity="0.9" stroke-dasharray=""/></g><path fill="#000000" stroke="none" paint-order="stroke fill markers" d="" fill-opacity="0.4"/><g><path fill="none" stroke="#000000" class="dcg-svg-curve" paint-order="fill stroke markers" d=" M 289.93798584906807 207.76990259169602 L 289.93798584906807 207.76990259169602 L 290.185546875 201.62184621840515 L 290.771484375 196.51052980760505 L 291.650390625 191.67803095888303 L 292.822265625 186.96658035115013 L 294.287109375 182.3493756546149 L 296.044921875 177.8258158208949 L 298.095703125 173.40387663881586 L 300.439453125 169.09530469316383 L 303.076171875 164.91397175420585 L 306.005859375 160.8752574963328 L 309.228515625 156.9958395937287 L 312.890625 153.1497752008076 L 316.845703125 149.53749911350388 L 321.09375 146.1743127860517 L 325.341796875 143.2646411965274 L 329.73632812499994 140.6691360364232 L 334.130859375 138.4483822164405 L 338.525390625 136.5673064862572 L 342.919921875 134.9995625666756 L 347.314453125 133.72524530472177 L 351.70898437499994 132.7294045368497 L 356.103515625 132.00105929790624 L 360.64453125 131.52133672068197 L 365.185546875 131.31384766547794 L 369.580078125 131.3701430989941 L 373.974609375 131.6798614799312 L 378.369140625 132.2461205596568 L 382.763671875 133.07475456559305 L 387.158203125 134.17462546710436 L 391.552734375 135.55812597849396 L 395.947265625 137.241945451211 L 400.1953125 139.17586264435917 L 404.443359375 141.43740610860567 L 408.69140625 144.0614568520835 L 412.79296875 146.98296095567267 L 416.89453125 150.34436072675012 L 420.849609375 154.07949182697118 L 424.51171875 158.06602202668424 L 427.734375 162.1019030606294 L 430.6640625 166.32567557626854 L 433.30078125 170.73209893462283 L 435.498046875 175.0133794591105 L 437.40234375 179.3760417174298 L 439.013671875 183.79468873602372 L 440.33203125 188.23478414594712 L 441.357421875 192.6385218308828 L 442.08984375 196.87830872298042 L 442.529296875 200.56485485878127 L 442.822265625 205.0825122837175 L 442.8695044037547 207.76990259169602" stroke-linecap="round" stroke-linejoin="round" stroke-miterlimit="10" stroke-width="2.5" stroke-opacity="0.9" stroke-dasharray=""/></g><path fill="#000000" stroke="none" paint-order="stroke fill markers" d="" fill-opacity="0.4"/><g><path fill="none" stroke="#000000" class="dcg-svg-curve" paint-order="fill stroke markers" d=" M 289.93798584906807 207.76990259169602 L 289.93798584906807 207.76990259169602 L 290.185546875 212.78773439028407 L 290.771484375 216.95053857528538 L 291.650390625 220.8716115791682 L 292.822265625 224.67391949756916 L 294.287109375 228.37323164368757 L 296.044921875 231.9635794340014 L 298.095703125 235.4315434711644 L 300.439453125 238.76005280257664 L 303.076171875 241.92957513034648 L 306.005859375 244.91842843770507 L 309.375 247.81850482794275 L 312.890625 250.3527355505339 L 316.40625 252.4687341898734 L 320.068359375 254.28960927407906 L 323.73046875 255.76322070202008 L 327.392578125 256.92081272074284 L 331.05468749999994 257.7843331056946 L 334.716796875 258.36883995817266 L 338.37890625 258.68394363583946 L 342.041015625 258.7346413639482 L 345.703125 258.5217255210663 L 349.365234375 258.0418467856048 L 353.02734374999994 257.2872442536621 L 356.54296875 256.2925128368062 L 360.05859375 255.0160775315641 L 363.57421875 253.43432144945783 L 367.08984375 251.51413666322088 L 370.458984375 249.31306708912578 L 373.828125 246.69815456008791 L 377.05078125 243.7266673920439 L 379.98046875 240.52007362460316 L 382.6171875 237.08905922954278 L 384.814453125 233.6836846580127 L 386.71875 230.14630033615788 L 388.330078125 226.49148286470134 L 389.6484375 222.7278332440609 L 390.673828125 218.8490257092695 L 391.40625 214.79285434553617 L 391.69921875 212.2028921969248 L 391.8923315521925 207.76990259169602" stroke-linecap="round" stroke-linejoin="round" stroke-miterlimit="10" stroke-width="2.5" stroke-opacity="0.9" stroke-dasharray=""/></g><path fill="#000000" stroke="none" paint-order="stroke fill markers" d="" fill-opacity="0.4"/><g><path fill="none" stroke="#000000" class="dcg-svg-curve" paint-order="fill stroke markers" d=" M 289.93798584906807 207.76990259169602 L 289.93798584906807 207.76990259169602 L 290.185546875 202.75207079310798 L 290.771484375 198.58926660810667 L 291.650390625 194.66819360422386 L 292.822265625 190.8658856858229 L 294.287109375 187.16657353970447 L 296.044921875 183.57622574939066 L 298.095703125 180.10826171222766 L 300.439453125 176.7797523808154 L 303.076171875 173.61023005304557 L 306.005859375 170.62137674568697 L 309.375 167.7213003554493 L 312.890625 165.18706963285814 L 316.40625 163.07107099351865 L 320.068359375 161.250195909313 L 323.73046875 159.77658448137197 L 327.392578125 158.61899246264917 L 331.05468749999994 157.75547207769745 L 334.716796875 157.17096522521942 L 338.37890625 156.85586154755256 L 342.041015625 156.80516381944386 L 345.703125 157.01807966232576 L 349.365234375 157.49795839778724 L 353.02734374999994 158.25256092972998 L 356.54296875 159.24729234658582 L 360.05859375 160.52372765182795 L 363.57421875 162.10548373393422 L 367.08984375 164.02566852017117 L 370.458984375 166.22673809426627 L 373.828125 168.84165062330413 L 377.05078125 171.81313779134814 L 379.98046875 175.0197315587889 L 382.6171875 178.45074595384926 L 384.814453125 181.85612052537934 L 386.71875 185.39350484723417 L 388.330078125 189.0483223186907 L 389.6484375 192.81197193933116 L 390.673828125 196.69077947412254 L 391.40625 200.74695083785588 L 391.69921875 203.33691298646724 L 391.8923315521925 207.76990259169602" stroke-linecap="round" stroke-linejoin="round" stroke-miterlimit="10" stroke-width="2.5" stroke-opacity="0.9" stroke-dasharray=""/></g><path fill="#000000" stroke="none" paint-order="stroke fill markers" d="" fill-opacity="0.4"/><g><path fill="none" stroke="#000000" class="dcg-svg-curve" paint-order="fill stroke markers" d=" M 289.93798584906807 207.76990259169602 L 289.93798584906807 207.76990259169602 L 290.185546875 211.31372464545106 L 290.771484375 214.2347829954794 L 291.650390625 216.95473923356872 L 292.822265625 219.5475661487899 L 294.287109375 222.01037822597215 L 296.044921875 224.3234419643661 L 298.095703125 226.45971298386743 L 300.5859375 228.4924409850505 L 303.076171875 230.06644151476473 L 305.56640625 231.27405464929902 L 308.203125 232.21350804285618 L 310.83984375 232.84239667233842 L 313.4765625 233.18378658967055 L 316.11328125 233.24923674249283 L 318.75 233.04089121779083 L 321.240234375 232.58661814734083 L 323.73046875 231.86789714133627 L 326.220703125 230.8600471814195 L 328.7109375 229.52291798150617 L 331.05468749999994 227.90519629439436 L 333.3984375 225.84419644549646 L 335.44921875 223.54208272367666 L 337.060546875 221.24726067792878 L 338.37890625 218.85405357757003 L 339.404296875 216.4149451586147 L 340.13671875 214.02103842137572 L 340.576171875 211.91305090386248 L 340.869140625 209.3008348999378 L 340.9151587006303 207.76990259169602" stroke-linecap="round" stroke-linejoin="round" stroke-miterlimit="10" stroke-width="2.5" stroke-opacity="0.9" stroke-dasharray=""/></g><path fill="#000000" stroke="none" paint-order="stroke fill markers" d="" fill-opacity="0.4"/><g><path fill="none" stroke="#000000" class="dcg-svg-curve" paint-order="fill stroke markers" d=" M 289.93798584906807 207.76990259169602 L 289.93798584906807 207.76990259169602 L 290.185546875 204.226080537941 L 290.771484375 201.30502218791264 L 291.650390625 198.58506594982333 L 292.822265625 195.99223903460214 L 294.287109375 193.5294269574199 L 296.044921875 191.21636321902594 L 298.095703125 189.08009219952461 L 300.5859375 187.04736419834154 L 303.076171875 185.47336366862731 L 305.56640625 184.26575053409303 L 308.203125 183.32629714053587 L 310.83984375 182.69740851105362 L 313.4765625 182.3560185937215 L 316.11328125 182.29056844089922 L 318.75 182.49891396560122 L 321.240234375 182.95318703605122 L 323.73046875 183.67190804205578 L 326.220703125 184.67975800197254 L 328.7109375 186.01688720188588 L 331.05468749999994 187.6346088889977 L 333.3984375 189.69560873789558 L 335.44921875 191.9977224597154 L 337.060546875 194.29254450546327 L 338.37890625 196.68575160582202 L 339.404296875 199.12486002477735 L 340.13671875 201.51876676201633 L 340.576171875 203.62675427952956 L 340.869140625 206.23897028345425 L 340.9151587006303 207.76990259169602" stroke-linecap="round" stroke-linejoin="round" stroke-miterlimit="10" stroke-width="2.5" stroke-opacity="0.9" stroke-dasharray=""/></g><path fill="#000000" stroke="none" paint-order="stroke fill markers" d="" fill-opacity="0.4"/><path fill="#000000" stroke="none" paint-order="stroke fill markers" d="" fill-opacity="0.4"/><path fill="#000000" stroke="none" paint-order="stroke fill markers" d="" fill-opacity="0.4"/><g><path fill="none" stroke="#000000" class="dcg-svg-curve" paint-order="fill stroke markers" d=" M 238.96081299750585 207.76990259169602 L 238.96081299750585 207.76990259169602 L 239.20898437499997 211.31806918512441 L 239.79492187499997 214.23711024303412 L 240.67382812499997 216.95631905431003 L 241.84570312499997 219.54873749330324 L 243.310546875 222.01128422854205 L 245.06835937499997 224.32415656556054 L 247.119140625 226.46027893806504 L 249.609375 228.49287808028743 L 252.099609375 230.06677958709037 L 254.58984375 231.27431068698462 L 257.2265625 232.21368840249292 L 259.86328125 232.84250832155905 L 262.5 233.18383341463252 L 265.13671875 233.2492202852223 L 267.7734375 233.04081094199233 L 270.263671875 232.58647515604832 L 272.75390625 231.8676868124411 L 275.244140625 230.85976184576148 L 277.734375 229.5225452336982 L 280.078125 227.9047225519616 L 282.421875 225.84358953235554 L 284.47265625 223.54130785679538 L 286.083984375 221.2462808867583 L 287.40234375 218.8527896126543 L 288.427734375 216.41325211187456 L 289.16015625 214.0186252640162 L 289.599609375 211.90934426531194 L 289.892578125 209.29065751514995 L 289.93798584906807 207.76990259169602" stroke-linecap="round" stroke-linejoin="round" stroke-miterlimit="10" stroke-width="2.5" stroke-opacity="0.9" stroke-dasharray=""/></g><path fill="#000000" stroke="none" paint-order="stroke fill markers" d="" fill-opacity="0.4"/><g><path fill="none" stroke="#000000" class="dcg-svg-curve" paint-order="fill stroke markers" d=" M 238.96081299750585 207.76990259169602 L 238.96081299750585 207.76990259169602 L 239.20898437499997 204.22173599826763 L 239.79492187499997 201.30269494035792 L 240.67382812499997 198.58348612908202 L 241.84570312499997 195.9910676900888 L 243.310546875 193.52852095485 L 245.06835937499997 191.2156486178315 L 247.119140625 189.079526245327 L 249.609375 187.04692710310462 L 252.099609375 185.47302559630168 L 254.58984375 184.26549449640743 L 257.2265625 183.32611678089913 L 259.86328125 182.697296861833 L 262.5 182.35597176875953 L 265.13671875 182.29058489816975 L 267.7734375 182.4989942413997 L 270.263671875 182.95333002734372 L 272.75390625 183.67211837095095 L 275.244140625 184.68004333763056 L 277.734375 186.01725994969385 L 280.078125 187.63508263143044 L 282.421875 189.6962156510365 L 284.47265625 191.99849732659666 L 286.083984375 194.29352429663373 L 287.40234375 196.68701557073774 L 288.427734375 199.1265530715175 L 289.16015625 201.52117991937584 L 289.599609375 203.6304609180801 L 289.892578125 206.2491476682421 L 289.93798584906807 207.76990259169602" stroke-linecap="round" stroke-linejoin="round" stroke-miterlimit="10" stroke-width="2.5" stroke-opacity="0.9" stroke-dasharray=""/></g><path fill="#000000" stroke="none" paint-order="stroke fill markers" d="" fill-opacity="0.4"/><g><path fill="none" stroke="#000000" class="dcg-svg-curve" paint-order="fill stroke markers" d=" M 187.98364014594364 207.76990259169602 L 187.98364014594364 207.76990259169602 L 188.232421875 212.80006024927718 L 188.818359375 216.95720342779052 L 189.697265625 220.87620078054113 L 190.86914062499997 224.67739206688447 L 192.333984375 228.37599403441075 L 194.091796875 231.96584324578845 L 196.14257812499997 235.43343299439363 L 198.48632812499997 238.76164707701577 L 201.12304687499997 241.93092726597357 L 204.05273437499997 244.9195755219252 L 207.42187499999997 247.8194661589502 L 210.93749999999997 250.3535388922971 L 214.453125 252.46940349444617 L 218.115234375 254.29015628652212 L 221.77734374999997 255.76365777461615 L 225.439453125 256.9211485488052 L 229.1015625 257.78457375492053 L 232.763671875 258.36898947916666 L 236.42578125 258.68400442976434 L 240.087890625 258.73461438289183 L 243.74999999999997 258.52161034417657 L 247.41210937499997 258.0416415856657 L 251.07421875 257.2869456477338 L 254.58984375 256.292119664658 L 258.10546875 255.01558290277364 L 261.62109375 253.43371570619837 L 265.13671875 251.5134062233737 L 268.505859375 249.3121989472151 L 271.875 246.69712245007918 L 275.09765625 243.72544057519337 L 278.02734375 240.51861748102385 L 280.6640625 237.08732288869308 L 282.861328125 233.68161661216774 L 284.765625 230.1438014328507 L 286.376953125 226.48839097478648 L 287.69531249999994 222.72385558678909 L 288.720703125 218.84354185066437 L 289.453125 214.7840725768646 L 289.74609375 212.18888560008162 L 289.93798584906807 207.76990259169602" stroke-linecap="round" stroke-linejoin="round" stroke-miterlimit="10" stroke-width="2.5" stroke-opacity="0.9" stroke-dasharray=""/></g><path fill="#000000" stroke="none" paint-order="stroke fill markers" d="" fill-opacity="0.4"/><g><path fill="none" stroke="#000000" class="dcg-svg-curve" paint-order="fill stroke markers" d=" M 187.98364014594364 207.76990259169602 L 187.98364014594364 207.76990259169602 L 188.232421875 202.73974493411487 L 188.818359375 198.58260175560153 L 189.697265625 194.66360440285092 L 190.86914062499997 190.86241311650758 L 192.333984375 187.1638111489813 L 194.091796875 183.5739619376036 L 196.14257812499997 180.10637218899842 L 198.48632812499997 176.77815810637628 L 201.12304687499997 173.60887791741848 L 204.05273437499997 170.62022966146685 L 207.42187499999997 167.72033902444184 L 210.93749999999997 165.18626629109494 L 214.453125 163.07040168894588 L 218.115234375 161.24964889686993 L 221.77734374999997 159.7761474087759 L 225.439453125 158.61865663458684 L 229.1015625 157.7552314284715 L 232.763671875 157.17081570422542 L 236.42578125 156.8558007536277 L 240.087890625 156.80519080050018 L 243.74999999999997 157.01819483921548 L 247.41210937499997 157.49816359772637 L 251.07421875 158.25285953565827 L 254.58984375 159.24768551873402 L 258.10546875 160.5242222806184 L 261.62109375 162.10608947719368 L 265.13671875 164.02639896001835 L 268.505859375 166.22760623617694 L 271.875 168.84268273331287 L 275.09765625 171.81436460819867 L 278.02734375 175.0211877023682 L 280.6640625 178.45248229469897 L 282.861328125 181.8581885712243 L 284.765625 185.39600375054135 L 286.376953125 189.05141420860556 L 287.69531249999994 192.81594959660296 L 288.720703125 196.69626333272768 L 289.453125 200.75573260652746 L 289.74609375 203.35091958331043 L 289.93798584906807 207.76990259169602" stroke-linecap="round" stroke-linejoin="round" stroke-miterlimit="10" stroke-width="2.5" stroke-opacity="0.9" stroke-dasharray=""/></g><path fill="#000000" stroke="none" paint-order="stroke fill markers" d="" fill-opacity="0.4"/><g><path fill="none" stroke="#000000" class="dcg-svg-curve" paint-order="fill stroke markers" d=" M 137.0064672943814 207.76990259169602 L 137.0064672943814 207.76990259169602 L 137.255859375 213.94061674766203 L 137.84179687499997 219.04156820727349 L 138.720703125 223.87027787472533 L 139.892578125 228.57970019563768 L 141.357421875 233.1956235335664 L 143.115234375 237.71829137791676 L 145.166015625 242.13956782082153 L 147.50976562499997 246.44762341017793 L 150.14648437499997 250.62853902701173 L 153.076171875 254.66690589607416 L 156.298828125 258.5460274134336 L 159.96093749999997 262.3918238664272 L 163.91601562499997 266.0038643190621 L 168.1640625 269.3668392875277 L 172.412109375 272.276329540116 L 176.806640625 274.8716696999023 L 181.201171875 277.092275391692 L 185.595703125 278.97321559316265 L 189.990234375 280.54083349362674 L 194.384765625 281.8150319147506 L 198.779296875 282.8107591885375 L 203.173828125 283.5389947816723 L 207.71484375 284.01860674399444 L 212.25585937499997 284.2259866707499 L 216.650390625 284.16958593600765 L 221.044921875 283.8597614935521 L 225.439453125 283.2933945030424 L 229.833984375 282.46464955189117 L 234.22851562499997 281.3646633196005 L 238.623046875 279.98104148268 L 243.017578125 278.2970926920679 L 247.265625 276.36304047391036 L 251.513671875 274.1013489885487 L 255.76171875 271.4771328969307 L 259.86328125 268.5554468246623 L 263.96484375 265.1938344698665 L 267.919921875 261.4584564744587 L 271.58203125 257.47164242153815 L 274.8046875 253.43544297328143 L 277.734375 249.2112903730305 L 280.37109375 244.804398836739 L 282.568359375 240.52256314763818 L 284.47265625 236.15918450161604 L 286.083984375 231.73957031110996 L 287.40234375 227.2980903178295 L 288.427734375 222.89221034592984 L 289.16015625 218.6487647967742 L 289.599609375 214.95557788245404 L 289.892578125 210.4047100485015 L 289.93798584906807 207.76990259169602" stroke-linecap="round" stroke-linejoin="round" stroke-miterlimit="10" stroke-width="2.5" stroke-opacity="0.9" stroke-dasharray=""/></g><path fill="#000000" stroke="none" paint-order="stroke fill markers" d="" fill-opacity="0.4"/><g><path fill="none" stroke="#000000" class="dcg-svg-curve" paint-order="fill stroke markers" d=" M 137.0064672943814 207.76990259169602 L 137.0064672943814 207.76990259169602 L 137.255859375 201.59918843573 L 137.84179687499997 196.49823697611856 L 138.720703125 191.66952730866672 L 139.892578125 186.96010498775436 L 141.357421875 182.34418164982566 L 143.115234375 177.8215138054753 L 145.166015625 173.40023736257052 L 147.50976562499997 169.09218177321412 L 150.14648437499997 164.91126615638032 L 153.076171875 160.8728992873179 L 156.298828125 156.99377776995848 L 159.96093749999997 153.14798131696486 L 163.91601562499997 149.53594086432997 L 168.1640625 146.17296589586437 L 172.412109375 143.26347564327602 L 176.806640625 140.66813548348972 L 181.201171875 138.44752979170005 L 185.595703125 136.5665895902294 L 189.990234375 134.9989716897653 L 194.384765625 133.72477326864146 L 198.779296875 132.72904599485457 L 203.173828125 132.00081040171978 L 207.71484375 131.5211984393976 L 212.25585937499997 131.31381851264217 L 216.650390625 131.3702192473844 L 221.044921875 131.68004368983992 L 225.439453125 132.24641068034964 L 229.833984375 133.07515563150088 L 234.22851562499997 134.17514186379157 L 238.623046875 135.55876370071206 L 243.017578125 137.24271249132414 L 247.265625 139.17676470948172 L 251.513671875 141.43845619484338 L 255.76171875 144.06267228646132 L 259.86328125 146.98435835872976 L 263.96484375 150.34597071352556 L 267.919921875 154.08134870893332 L 271.58203125 158.06816276185387 L 274.8046875 162.10436221011062 L 277.734375 166.32851481036155 L 280.37109375 170.73540634665304 L 282.568359375 175.01724203575387 L 284.47265625 179.380620681776 L 286.083984375 183.8002348722821 L 287.40234375 188.24171486556256 L 288.427734375 192.6475948374622 L 289.16015625 196.89104038661785 L 289.599609375 200.584227300938 L 289.892578125 205.13509513489055 L 289.93798584906807 207.76990259169602" stroke-linecap="round" stroke-linejoin="round" stroke-miterlimit="10" stroke-width="2.5" stroke-opacity="0.9" stroke-dasharray=""/></g><path fill="#000000" stroke="none" paint-order="stroke fill markers" d="" fill-opacity="0.4"/><g><path fill="none" stroke="#000000" class="dcg-svg-curve" paint-order="fill stroke markers" d=" M 86.02929444281918 207.76990259169602 L 86.02929444281918 207.76990259169602 L 86.279296875 214.9053890907565 L 86.86523437500003 220.7989709426952 L 87.74414062499997 226.3906260884603 L 88.91601562500003 231.8592026962973 L 90.38085937499997 237.2382889325075 L 92.138671875 242.53239192853758 L 94.189453125 247.73662736159008 L 96.533203125 252.84213546772108 L 99.169921875 257.8379767971382 L 102.09960937499997 262.7118889617556 L 105.322265625 267.4506010633167 L 108.83789062499997 272.0399495849903 L 112.79296875 276.6251968164645 L 117.04101562500003 280.9944383282415 L 121.58203125 285.1360123800417 L 126.41601562499997 289.03561626357805 L 131.396484375 292.5789964997621 L 136.37695312499997 295.69850125262417 L 141.357421875 298.4378924089548 L 146.484375 300.8961588253645 L 151.61132812499997 303.015603418575 L 156.73828124999997 304.8184273368764 L 161.86523437499997 306.3220080371737 L 166.9921875 307.53987564754743 L 172.119140625 308.48239567325066 L 177.24609375 309.15724748812363 L 182.373046875 309.5697545115306 L 187.5 309.72310116810877 L 192.626953125 309.6184580666302 L 197.75390625 309.2550271568664 L 202.880859375 308.63001099434274 L 208.00781249999997 307.7385033085574 L 213.134765625 306.5732906656329 L 218.26171875 305.12454584921505 L 223.2421875 303.43349778983804 L 228.22265625 301.44759572474504 L 233.203125 299.1476175843898 L 238.18359375 296.5091456913687 L 243.017578125 293.59504039100045 L 247.8515625 290.2957802347777 L 252.5390625 286.6830577208734 L 257.2265625 282.603760648209 L 261.62109375 278.2838305383269 L 265.72265624999994 273.7345445063269 L 269.384765625 269.15838179174733 L 272.75390625 264.4152077140068 L 275.830078125 259.51632219869896 L 278.61328125 254.47061737318677 L 281.103515625 249.28348348418524 L 283.30078125 243.95458470307597 L 285.05859375 238.93305375653355 L 286.669921875 233.37666744486566 L 287.841796875 228.33776933638845 L 288.720703125 223.47763158432394 L 289.453125 217.70127969684302 L 289.74609375 214.02223369573127 L 289.93798584906807 207.76990259169602" stroke-linecap="round" stroke-linejoin="round" stroke-miterlimit="10" stroke-width="2.5" stroke-opacity="0.9" stroke-dasharray=""/></g><path fill="#000000" stroke="none" paint-order="stroke fill markers" d="" fill-opacity="0.4"/><g><path fill="none" stroke="#000000" class="dcg-svg-curve" paint-order="fill stroke markers" d=" M 86.02929444281918 207.76990259169602 L 86.02929444281918 207.76990259169602 L 86.279296875 200.63441609263555 L 86.86523437500003 194.74083424069684 L 87.74414062499997 189.14917909493175 L 88.91601562500003 183.68060248709475 L 90.38085937499997 178.30151625088456 L 92.138671875 173.00741325485447 L 94.189453125 167.80317782180197 L 96.533203125 162.69766971567097 L 99.169921875 157.70182838625385 L 102.09960937499997 152.82791622163643 L 105.322265625 148.08920412007535 L 108.83789062499997 143.49985559840172 L 112.79296875 138.91460836692755 L 117.04101562500003 134.54536685515058 L 121.58203125 130.40379280335037 L 126.41601562499997 126.50418891981403 L 131.396484375 122.96080868362993 L 136.37695312499997 119.84130393076786 L 141.357421875 117.10191277443728 L 146.484375 114.64364635802751 L 151.61132812499997 112.52420176481706 L 156.73828124999997 110.72137784651564 L 161.86523437499997 109.21779714621835 L 166.9921875 107.99992953584459 L 172.119140625 107.05740951014137 L 177.24609375 106.38255769526839 L 182.373046875 105.9700506718614 L 187.5 105.8167040152833 L 192.626953125 105.92134711676188 L 197.75390625 106.28477802652569 L 202.880859375 106.90979418904931 L 208.00781249999997 107.80130187483464 L 213.134765625 108.96651451775914 L 218.26171875 110.41525933417698 L 223.2421875 112.10630739355403 L 228.22265625 114.09220945864698 L 233.203125 116.39218759900223 L 238.18359375 119.03065949202336 L 243.017578125 121.94476479239162 L 247.8515625 125.24402494861434 L 252.5390625 128.85674746251865 L 257.2265625 132.93604453518304 L 261.62109375 137.2559746450651 L 265.72265624999994 141.80526067706512 L 269.384765625 146.3814233916447 L 272.75390625 151.1245974693853 L 275.830078125 156.02348298469312 L 278.61328125 161.06918781020528 L 281.103515625 166.2563216992068 L 283.30078125 171.58522048031608 L 285.05859375 176.6067514268585 L 286.669921875 182.1631377385264 L 287.841796875 187.2020358470036 L 288.720703125 192.0621735990681 L 289.453125 197.83852548654903 L 289.74609375 201.51757148766077 L 289.93798584906807 207.76990259169602" stroke-linecap="round" stroke-linejoin="round" stroke-miterlimit="10" stroke-width="2.5" stroke-opacity="0.9" stroke-dasharray=""/></g><path fill="#000000" stroke="none" paint-order="stroke fill markers" d="" fill-opacity="0.4"/><g><path fill="none" stroke="#000000" class="dcg-svg-curve" paint-order="fill stroke markers" d=" M 35.05212159125696 207.76990259169602 L 35.05212159125696 207.76990259169602 L 35.302734375 215.7583222859175 L 35.88867187499997 222.34814067761454 L 36.767578125 228.6098361347917 L 37.939453125 234.7440255615199 L 39.404296875 240.79060108367082 L 41.16210937499997 246.7573052513567 L 43.212890625 252.64156978773272 L 45.55664062500003 258.4365434157921 L 48.19335937500003 264.1332206224674 L 51.12304687499997 269.7213112996011 L 54.345703125 275.18962459837184 L 57.86132812500003 280.5262385198409 L 61.669921875 285.7185635039813 L 65.771484375 290.7533472222027 L 70.3125 295.7703442908272 L 75.146484375 300.5703787918005 L 80.419921875 305.26540855075046 L 85.83984374999997 309.5818848631513 L 91.40625 313.5436372106885 L 96.97265624999997 317.07917200364875 L 102.5390625 320.2286953400651 L 108.251953125 323.0928707612498 L 113.96484374999997 325.61098061572284 L 119.677734375 327.80480632268257 L 125.390625 329.69185434347537 L 131.10351562499997 331.28618607542455 L 136.81640625 332.5990178401666 L 142.529296875 333.63915818341184 L 148.24218749999997 334.4133262429973 L 153.95507812499997 334.9263800769066 L 159.66796875 335.181474044937 L 165.38085937499997 335.18015757666706 L 171.09374999999994 334.92242270789325 L 176.806640625 334.4067038379298 L 182.51953125 333.6298296903157 L 188.232421875 332.58692398731813 L 193.9453125 331.27124741147554 L 199.658203125 329.67396846288244 L 205.37109374999997 327.7838440358991 L 210.93749999999997 325.64708591416047 L 216.50390625 323.20276099008754 L 222.0703125 320.43085186396263 L 227.63671875 317.30649203446296 L 233.05664062499997 313.89606997318543 L 238.47656249999997 310.08564562839746 L 243.74999999999997 305.9500159277151 L 249.0234375 301.33560009918 L 254.00390625 296.47069660327907 L 258.69140625 291.3639377232056 L 262.939453125 286.2085638360997 L 266.89453125 280.86196810574336 L 270.556640625 275.33020443546434 L 273.779296875 269.87882445536906 L 276.708984375 264.31085230059995 L 279.345703125 258.6386226786078 L 281.689453125 252.87418287786073 L 283.740234375 247.02938702015805 L 285.498046875 241.1160361691265 L 286.962890625 235.14614276166103 L 288.134765625 229.1325742898304 L 289.01367187499994 223.0911365434136 L 289.599609375 217.05068280669693 L 289.892578125 211.17162643875747 L 289.93798584906807 207.76990259169602" stroke-linecap="round" stroke-linejoin="round" stroke-miterlimit="10" stroke-width="2.5" stroke-opacity="0.9" stroke-dasharray=""/></g><path fill="#000000" stroke="none" paint-order="stroke fill markers" d="" fill-opacity="0.4"/><g><path fill="none" stroke="#000000" class="dcg-svg-curve" paint-order="fill stroke markers" d=" M 35.05212159125696 207.76990259169602 L 35.05212159125696 207.76990259169602 L 35.302734375 199.78148289747455 L 35.88867187499997 193.1916645057775 L 36.767578125 186.92996904860036 L 37.939453125 180.79577962187216 L 39.404296875 174.74920409972123 L 41.16210937499997 168.78249993203534 L 43.212890625 162.89823539565933 L 45.55664062500003 157.10326176759997 L 48.19335937500003 151.40658456092467 L 51.12304687499997 145.81849388379095 L 54.345703125 140.3501805850202 L 57.86132812500003 135.01356666355116 L 61.669921875 129.82124167941078 L 65.771484375 124.78645796118933 L 70.3125 119.76946089256487 L 75.146484375 114.9694263915915 L 80.419921875 110.27439663264158 L 85.83984374999997 105.95792032024075 L 91.40625 101.99616797270357 L 96.97265624999997 98.46063317974328 L 102.5390625 95.31110984332696 L 108.251953125 92.44693442214225 L 113.96484374999997 89.92882456766922 L 119.677734375 87.73499886070948 L 125.390625 85.84795083991668 L 131.10351562499997 84.25361910796748 L 136.81640625 82.94078734322547 L 142.529296875 81.90064699998022 L 148.24218749999997 81.12647894039472 L 153.95507812499997 80.61342510648547 L 159.66796875 80.3583311384551 L 165.38085937499997 80.35964760672499 L 171.09374999999994 80.61738247549879 L 176.806640625 81.13310134546224 L 182.51953125 81.90997549307632 L 188.232421875 82.9528811960739 L 193.9453125 84.26855777191648 L 199.658203125 85.8658367205096 L 205.37109374999997 87.75596114749294 L 210.93749999999997 89.89271926923156 L 216.50390625 92.33704419330452 L 222.0703125 95.10895331942942 L 227.63671875 98.23331314892908 L 233.05664062499997 101.64373521020663 L 238.47656249999997 105.4541595549946 L 243.74999999999997 109.5897892556769 L 249.0234375 114.20420508421206 L 254.00390625 119.06910858011297 L 258.69140625 124.17586746018642 L 262.939453125 129.33124134729235 L 266.89453125 134.67783707764866 L 270.556640625 140.20960074792768 L 273.779296875 145.66098072802302 L 276.708984375 151.22895288279207 L 279.345703125 156.90118250478423 L 281.689453125 162.66562230553131 L 283.740234375 168.510418163234 L 285.498046875 174.42376901426556 L 286.962890625 180.39366242173102 L 288.134765625 186.40723089356166 L 289.01367187499994 192.44866863997845 L 289.599609375 198.48912237669512 L 289.892578125 204.36817874463458 L 289.93798584906807 207.76990259169602" stroke-linecap="round" stroke-linejoin="round" stroke-miterlimit="10" stroke-width="2.5" stroke-opacity="0.9" stroke-dasharray=""/></g></g></g><g id="labels-edc71123"/></g></svg>