<svg version="1.1" xmlns="http://www.w3.org/2000/svg" xmlns:xlink="http://www.w3.org/1999/xlink" width="1200" height="800"><defs/><g transform="scale(2,2)"><g id="background-ee6e858c"><rect fill="white" stroke="none" x="0" y="0" width="600" height="400" class="dcg-svg-background"/></g><g id="background-images-ee6e858c"/><g id="graphpaper-ee6e858c"><g id="axis-ee6e858c"><g id="yaxis-ee6e858c"><title>Y axis</title><g><path fill="none" stroke="rgb(0,0,0)" class="dcg-svg-axis-line" paint-order="fill stroke markers" d=" M 125 0 L 125 400" stroke-opacity="0.9" stroke-miterlimit="10" stroke-width="2" stroke-dasharray=""/></g></g><g id="xaxis-ee6e858c"><title>X axis</title><g><path fill="none" stroke="rgb(0,0,0)" class="dcg-svg-axis-line" paint-order="fill stroke markers" d=" M 0 362 L 600 362" stroke-opacity="0.9" stroke-miterlimit="10" stroke-width="2" stroke-dasharray=""/></g></g><g><g class="dcg-svg-axis-value"><text fill="none" stroke="#ffffff" font-family="Arial" font-size="20px" font-style="normal" font-weight="normal" text-decoration="normal" x="114.44769897989511" y="382.55141722814" text-anchor="middle" stroke-miterlimit="2" stroke-width="3" stroke-dasharray="">0</text><text fill="#000000" stroke="none" font-family="Arial" font-size="20px" font-style="normal" font-weight="normal" text-decoration="normal" x="114.44769897989511" y="382.55141722814" text-anchor="middle">0</text></g><g><path fill="none" stroke="rgb(0,0,0)" class="dcg-svg-tickmark" paint-order="fill stroke markers" d=" M 292 358 L 292 366 M 459 358 L 459 366 M 121 195 L 129 195 M 121 28 L 129 28" stroke-opacity="0.9" stroke-miterlimit="2" stroke-width="2" stroke-dasharray=""/></g><g class="dcg-svg-axis-value"><text fill="none" stroke="#ffffff" font-family="Arial" font-size="20px" font-style="normal" font-weight="normal" text-decoration="normal" x="292.1140848211863" y="382.55141722814" text-anchor="middle" stroke-miterlimit="2" stroke-width="3" stroke-dasharray="">5</text><text fill="#000000" stroke="none" font-family="Arial" font-size="20px" font-style="normal" font-weight="normal" text-decoration="normal" x="292.1140848211863" y="382.55141722814" text-anchor="middle">5</text></g><g class="dcg-svg-axis-value"><text fill="none" stroke="#ffffff" font-family="Arial" font-size="20px" font-style="normal" font-weight="normal" text-decoration="normal" x="459.21894722497746" y="382.55141722814" text-anchor="middle" stroke-miterlimit="2" stroke-width="3" stroke-dasharray="">10</text><text fill="#000000" stroke="none" font-family="Arial" font-size="20px" font-style="normal" font-weight="normal" text-decoration="normal" x="459.21894722497746" y="382.55141722814" text-anchor="middle">10</text></g><g class="dcg-svg-axis-value"><text fill="none" stroke="#ffffff" font-family="Arial" font-size="20px" font-style="normal" font-weight="normal" text-decoration="normal" x="106.10785522989511" y="200.70650887749613" text-anchor="middle" stroke-miterlimit="2" stroke-width="3" stroke-dasharray="">0.5</text><text fill="#000000" stroke="none" font-family="Arial" font-size="20px" font-style="normal" font-weight="normal" text-decoration="normal" x="106.10785522989511" y="200.70650887749613" text-anchor="middle">0.5</text></g><g class="dcg-svg-axis-value"><text fill="none" stroke="#ffffff" font-family="Arial" font-size="20px" font-style="normal" font-weight="normal" text-decoration="normal" x="114.44769897989511" y="33.86160052685227" text-anchor="middle" stroke-miterlimit="2" stroke-width="3" stroke-dasharray="">1</text><text fill="#000000" stroke="none" font-family="Arial" font-size="20px" font-style="normal" font-weight="normal" text-decoration="normal" x="114.44769897989511" y="33.86160052685227" text-anchor="middle">1</text></g></g></g></g><g id="expressions-ee6e858c"><g id="sketch-ee6e858c"><title>Expression 1</title><path fill="#c74440" stroke="none" paint-order="stroke fill markers" d="" fill-opacity="0.4"/><g><path fill="none" stroke="#c74440" class="dcg-svg-curve" paint-order="fill stroke markers" d=" M -7.105427357601002e-14 362.11141721816756 L -7.105427357601002e-14 362.11141721816756 L 197.46093749999994 361.98172084330145 L 211.23046875 361.70528402345053 L 219.72656249999997 361.2906263604984 L 226.02539062499997 360.72963484136136 L 231.00585937499997 360.0271124251973 L 235.10742187499997 359.18970266310345 L 238.76953124999994 358.1647400227315 L 241.99218749999994 356.9737167555797 L 244.92187499999994 355.58783224939106 L 247.70507812499997 353.93501192103076 L 250.34179687499997 351.99640915694084 L 252.97851562499997 349.6158133814896 L 255.46875 346.8792546395125 L 257.8125 343.78953526370896 L 260.15625 340.1163778378974 L 262.353515625 336.0616915272842 L 264.55078124999994 331.3333497702059 L 266.748046875 325.84792408624946 L 268.9453125 319.5223129579667 L 271.14257812499994 312.2781695230129 L 273.486328125 303.46247825274264 L 275.830078125 293.4644094561954 L 278.3203125 281.51626573344845 L 280.95703125 267.40308559824325 L 283.88671875 250.0934281128027 L 287.40234375 227.46606215897611 L 292.96875 189.35411368499751 L 298.53515625 151.85009331266656 L 302.05078125 130.14439313854126 L 304.98046875 113.8127810817328 L 307.6171875 100.66828430040766 L 310.107421875 89.65833975686405 L 312.59765625 79.99526117398244 L 314.94140625 72.0742827966468 L 317.28515625 65.21120848820948 L 319.62890625 59.31222561698297 L 321.97265625 54.27673833049812 L 324.31640625 50.00358189414533 L 326.66015625 46.39542714790309 L 329.150390625 43.18915128457968 L 331.640625 40.5328886540762 L 334.423828125 38.10832127042357 L 337.20703125 36.15745361410666 L 340.13671875 34.51883183226761 L 343.212890625 33.165032947764985 L 346.435546875 32.06439563600662 L 350.09765625 31.11770671797848 L 354.19921875 30.34458396592828 L 359.03320312499994 29.711750346455858 L 365.0390625 29.206682836056643 L 372.802734375 28.834347885928253 L 383.935546875 28.5856238492305 L 403.125 28.45499705260312 L 462.451171875 28.421843909331642 L 600 28.421600529547277" stroke-linecap="round" stroke-linejoin="round" stroke-miterlimit="10" stroke-width="5" stroke-dasharray=""/></g></g></g><g id="labels-ee6e858c"/></g></svg>